<?xml version="1.0" encoding="iso-8859-1"?>
<!-- Generator: Adobe Illustrator 19.0.0, SVG Export Plug-In . SVG Version: 6.00 Build 0)  -->
<svg version="1.1" id="Capa_1" xmlns="http://www.w3.org/2000/svg" xmlns:xlink="http://www.w3.org/1999/xlink" x="0px" y="0px"
	 viewBox="0 0 512 512" style="enable-background:new 0 0 512 512;" xml:space="preserve">
<g>
	<circle style="fill:#26a9bf;" cx="256" cy="256" r="236.17"/>
	<path style="fill:#26a9bf;" d="M256,512C114.853,512,0,397.167,0,256C0,114.853,114.853,0,256,0c141.167,0,256,114.853,256,256
		C512,397.167,397.167,512,256,512z M256,39.659C136.705,39.659,39.659,136.705,39.659,256S136.705,472.341,256,472.341
		S472.341,375.275,472.341,256C472.341,136.705,375.295,39.659,256,39.659z"/>
</g>
<path style="fill:#FFFFFF;" d="M142.773,200.675c7.734-7.694,20.226-7.694,27.96,0L256,285.744l85.069-85.069
	c8.309-7.119,20.841-6.147,27.96,2.161c6.365,7.416,6.365,18.382,0,25.798l-99.148,99.148c-7.734,7.694-20.226,7.694-27.96,0
	l-99.148-99.148c-7.971-7.496-8.785-19.592-1.289-27.563C141.762,200.775,142.039,200.497,142.773,200.675z"/>
</svg>
