<?xml version="1.0" encoding="iso-8859-1"?>
<!-- Generator: Adobe Illustrator 19.0.0, SVG Export Plug-In . SVG Version: 6.00 Build 0)  -->
<svg version="1.1" id="Capa_1" xmlns="http://www.w3.org/2000/svg" xmlns:xlink="http://www.w3.org/1999/xlink" x="0px" y="0px"
	 viewBox="0 0 512 512" style="enable-background:new 0 0 512 512;" xml:space="preserve">
<polygon style="fill:#26a9bf;" points="21.333,352 21.333,277.333 266.667,190.507 384,276.053 384,352 "/>
<g>
	<path style="fill:#5642ff;" d="M448,480H170.667c-35.285,0-64-28.715-64-64v-64c0-11.797,9.557-21.333,21.333-21.333
		s21.333,9.536,21.333,21.333v64c0,11.776,9.579,21.333,21.333,21.333H448c11.776,0,21.333-9.557,21.333-21.333V202.667
		c0-11.755-9.557-21.333-21.333-21.333h-64c-11.797,0-21.333-9.557-21.333-21.333s9.536-21.333,21.333-21.333h64
		c35.285,0,64,28.715,64,64V416C512,451.285,483.285,480,448,480z"/>
	<path style="fill:#5642ff;" d="M341.333,373.333H64c-35.285,0-64-28.715-64-64V96c0-35.285,28.715-64,64-64h277.333
		c35.285,0,64,28.715,64,64v213.333C405.333,344.619,376.619,373.333,341.333,373.333z M64,74.667
		c-11.755,0-21.333,9.579-21.333,21.333v213.333c0,11.776,9.579,21.333,21.333,21.333h277.333c11.776,0,21.333-9.557,21.333-21.333
		V96c0-11.755-9.557-21.333-21.333-21.333H64z"/>
	<path style="fill:#5642ff;" d="M28.437,297.429l-14.229-40.213l245.333-86.827c6.592-2.347,13.973-1.301,19.691,2.88
		l117.333,85.568l-25.131,34.453l-108.245-78.912L28.437,297.429z"/>
	<circle style="fill:#5642ff;" cx="117.333" cy="148.053" r="32"/>
</g>
</svg>
